<?xml version="1.0" standalone="no"?>
<!DOCTYPE svg PUBLIC "-//W3C//DTD SVG 20010904//EN"
 "http://www.w3.org/TR/2001/REC-SVG-20010904/DTD/svg10.dtd">
<svg version="1.0" xmlns="http://www.w3.org/2000/svg"
 width="72.000000pt" height="72.000000pt" viewBox="0 0 72.000000 72.000000"
 preserveAspectRatio="xMidYMid meet">

<g transform="translate(0.000000,72.000000) scale(0.100000,-0.100000)"
fill="#000000" stroke="none">
<path d="M265 707 c-109 -37 -186 -103 -232 -202 -24 -51 -28 -73 -28 -145 0
-72 4 -94 28 -146 36 -77 104 -145 182 -181 51 -24 73 -28 145 -28 72 0 94 4
145 28 78 36 146 104 182 181 24 52 28 74 28 146 0 72 -4 94 -28 146 -57 123
-177 204 -311 211 -41 1 -88 -3 -111 -10z m-91 -208 l15 -22 27 22 c34 26 68
27 94 1 24 -24 25 -41 4 -131 -17 -75 -14 -91 14 -71 35 25 45 26 60 4 18 -28
28 -28 43 -1 8 17 8 27 -2 46 -12 21 -11 27 2 37 17 12 33 86 19 86 -27 0 -40
-15 -40 -46 0 -29 -3 -34 -24 -34 -41 0 -49 54 -13 95 29 35 104 46 141 22 24
-16 24 -17 9 -57 -29 -74 15 -66 53 10 22 44 47 66 64 55 27 -17 -1 -87 -50
-128 l-30 -26 21 -35 c23 -39 43 -45 70 -20 19 17 39 12 39 -11 0 -7 -14 -25
-31 -39 -52 -44 -96 -31 -131 37 l-21 42 -12 -34 c-19 -58 -81 -89 -124 -62
-7 5 -25 4 -41 -2 -38 -14 -77 3 -86 38 -4 15 0 60 8 101 9 43 11 77 6 80 -30
19 -65 -38 -88 -146 -14 -63 -20 -75 -38 -78 -32 -5 -36 17 -21 123 7 52 9 98
6 102 -4 3 -16 -3 -28 -15 -22 -25 -39 -21 -39 8 0 24 55 70 85 70 13 0 31
-10 39 -21z"/>
</g>
</svg>
