<?xml version="1.0" standalone="no"?>
<!DOCTYPE svg PUBLIC "-//W3C//DTD SVG 20010904//EN"
 "http://www.w3.org/TR/2001/REC-SVG-20010904/DTD/svg10.dtd">
<svg version="1.0" xmlns="http://www.w3.org/2000/svg"
 width="240.000000pt" height="240.000000pt" viewBox="0 0 240.000000 240.000000"
 preserveAspectRatio="xMidYMid meet">

<g transform="translate(0.000000,240.000000) scale(0.100000,-0.100000)"
fill="#000000" stroke="none">
<path d="M383 2386 c-181 -44 -334 -202 -372 -384 -15 -74 -15 -1530 0 -1604
39 -187 200 -348 387 -387 74 -15 1530 -15 1604 0 187 39 348 200 387 387 15
74 15 1530 0 1604 -39 187 -200 348 -387 387 -79 16 -1549 14 -1619 -3z m344
-327 c112 -54 127 -219 27 -295 -33 -25 -46 -29 -104 -29 -58 0 -71 4 -104 29
-100 75 -85 240 26 295 54 27 100 27 155 0z m73 -1009 l0 -550 -150 0 -150 0
0 550 0 550 150 0 150 0 0 -550z m500 467 l0 -83 58 57 c80 78 146 103 272
103 82 1 103 -3 151 -25 109 -51 174 -134 204 -260 12 -51 15 -139 15 -436 l0
-373 -150 0 -150 0 0 303 c0 323 -5 363 -50 427 -29 41 -89 70 -145 70 -75 0
-139 -41 -178 -115 -21 -38 -22 -54 -25 -362 l-3 -323 -150 0 -149 0 0 550 0
550 150 0 150 0 0 -83z"/>
</g>
</svg>
